<?xml version="1.0" encoding="iso-8859-1"?>
<!-- Generator: Adobe Illustrator 19.0.0, SVG Export Plug-In . SVG Version: 6.00 Build 0)  -->
<svg xmlns="http://www.w3.org/2000/svg" xmlns:xlink="http://www.w3.org/1999/xlink" version="1.1" id="Capa_1" x="0px" y="0px" viewBox="0 0 498.88 498.88" style="enable-background:new 0 0 498.88 498.88;" xml:space="preserve" width="512px" height="512px">
<g>
	<g>
		<path d="M93.12,497.44h405.76l-26.376-84.392c-0.384-1.224-0.84-2.408-1.272-3.608H496v-352h-96v0.352    c-3.208-2.264-6.536-4.4-10.064-6.288C373.384,20.56,341.592,1.44,306.336,1.44H296c-42.496,0-80.64,18.616-107.024,48H0v360    h120.768c-0.432,1.2-0.888,2.384-1.272,3.608L93.12,497.44z M317.76,481.44h-43.52l6.376-25.496L264.44,431.68L296,404.072    l31.56,27.616l-16.176,24.264L317.76,481.44z M320,177.44c-8.824,0-16,7.176-16,16h-16c0-8.824-7.176-16-16-16h-48    c-5.896,0-11,3.24-13.776,8H200v-37.104c29.432,8.696,59.848,13.104,90.592,13.104h10.816c30.744,0,61.168-4.408,90.592-13.104    v37.104h0h-10.224c-2.776-4.76-7.88-8-13.776-8H320z M368,193.44v16c0,8.824-7.176,16-16,16h-16c-8.824,0-16-7.176-16-16v-16H368z     M272,193.44v16c0,8.824-7.176,16-16,16h-16c-8.824,0-16-7.176-16-16v-16H272z M208,201.44v8c0,17.648,14.352,32,32,32h16    c17.648,0,32-14.352,32-32h16c0,17.648,14.352,32,32,32h16c17.648,0,32-14.352,32-32v-8h8v32c0,52.936-43.064,96-96,96    c-52.936,0-96-43.064-96-96v-32H208z M346.792,353.96l20.488,3.152l-12.808,76.856l-46.768-40.92L346.792,353.96z M296,382.128    l-40-40v-4.2c12.44,4.784,25.896,7.512,40,7.512s27.56-2.728,40-7.512v4.2L296,382.128z M284.296,393.048l-46.768,40.92    l-12.808-76.856l20.488-3.152L284.296,393.048z M477.12,481.44h-62.056l-7.128-56.992l-15.872,1.984l6.872,55.008H334.24    l-5.624-22.504l11.088-16.624l25.832,22.6l17.56-105.36l7.784,1.2c30.968,4.768,57.016,27.168,66.368,57.072L477.12,481.44z     M480,73.44v320h-16v0.192c-14.768-25.728-40.808-44.096-70.688-48.696L352,338.576v-8.288    c26.92-15.624,46.784-42.072,53.488-73.4C424.928,254.176,440,237.616,440,217.44v-82.336c0-23.216-8.416-44.816-22.912-61.664    H480z M407.664,240.072c0.128-2.208,0.336-4.392,0.336-6.632v-38.528c9.288,3.312,16,12.112,16,22.528    C424,227.976,417.128,236.856,407.664,240.072z M296,17.44h10.336c30.048,0,57.064,16.696,70.504,43.576l1.192,2.384l2.384,1.192    C407.304,78.04,424,105.056,424,135.104v50.544c-4.672-3.536-10.056-6.184-16-7.392v-51.912l-10.528,3.512    c-31.04,10.344-63.36,15.584-96.064,15.584h-10.816c-32.704,0-65.024-5.24-96.064-15.584L184,126.336v51.912    c-5.944,1.216-11.328,3.856-16,7.392v-40.2C168,74.864,225.424,17.44,296,17.44z M184.336,240.072    C174.872,236.856,168,227.976,168,217.44c0-10.416,6.712-19.216,16-22.528v38.528C184,235.68,184.208,237.864,184.336,240.072z     M16,393.44v-328h160.352c-15.36,22.896-24.352,50.416-24.352,80v72c0,20.176,15.072,36.736,34.512,39.448    c6.704,31.328,26.568,57.776,53.488,73.4v8.288l-41.312,6.352c-29.88,4.6-55.92,22.968-70.688,48.696v-0.184H16z M134.76,417.816    c9.352-29.896,35.4-52.304,66.368-57.072l7.784-1.2l17.56,105.36l25.832-22.6l11.088,16.624l-5.632,22.512h-64.696l6.872-55.008    l-15.872-1.984l-7.128,56.992H114.88L134.76,417.816z" fill="#a1a1a1"/>
	</g>
</g>
<g>
	<g>
		<polygon points="64,129.44 64,145.44 72,145.44 72,193.44 88,193.44 88,129.44   " fill="#a1a1a1"/>
	</g>
</g>
<g>
	<g>
		<rect x="32" y="217.44" width="96" height="16" fill="#a1a1a1"/>
	</g>
</g>
<g>
	<g>
		<path d="M104,274.816v-1.376c0-13.232-10.768-24-24-24s-24,10.768-24,24h16c0-4.416,3.584-8,8-8s8,3.584,8,8v1.376    c0,2.104-0.848,4.168-2.344,5.656L56,310.128v19.312h48v-16H75.312l21.656-21.656C101.504,287.256,104,281.224,104,274.816z" fill="#a1a1a1"/>
	</g>
</g>
<g>
</g>
<g>
</g>
<g>
</g>
<g>
</g>
<g>
</g>
<g>
</g>
<g>
</g>
<g>
</g>
<g>
</g>
<g>
</g>
<g>
</g>
<g>
</g>
<g>
</g>
<g>
</g>
<g>
</g>
</svg>
